<svg width="16" height="16" viewBox="0 0 16 16" fill="none" xmlns="http://www.w3.org/2000/svg">
<path d="M13.8667 7.75781C14.2 7.97135 14.4972 8.21354 14.7583 8.48438C15.0194 8.75521 15.2444 9.05208 15.4333 9.375C15.6222 9.69792 15.7611 10.0391 15.85 10.3984C15.9389 10.7578 15.9889 11.125 16 11.5C16 12.1198 15.875 12.7031 15.625 13.25C15.375 13.7969 15.0306 14.2734 14.5917 14.6797C14.1528 15.0859 13.6444 15.4062 13.0667 15.6406C12.4889 15.875 11.8667 15.9948 11.2 16C10.6944 16 10.2056 15.9297 9.73333 15.7891C9.26111 15.6484 8.82778 15.4453 8.43333 15.1797C8.03889 14.9141 7.68889 14.5964 7.38333 14.2266C7.07778 13.8568 6.84167 13.4479 6.675 13H0V1H2.13333V0H3.2V1H10.6667V0H11.7333V1H13.8667V7.75781ZM1.06667 2V4H12.8V2H11.7333V3H10.6667V2H3.2V3H2.13333V2H1.06667ZM6.425 12C6.40833 11.8385 6.4 11.6719 6.4 11.5C6.4 11.0521 6.46667 10.6172 6.6 10.1953C6.73333 9.77344 6.93611 9.375 7.20833 9H6.4V8H7.46667V8.67188C7.69444 8.40625 7.94722 8.17188 8.225 7.96875C8.50278 7.76562 8.80278 7.59115 9.125 7.44531C9.44722 7.29948 9.78333 7.1901 10.1333 7.11719C10.4833 7.04427 10.8389 7.00521 11.2 7C11.7556 7 12.2889 7.08594 12.8 7.25781V5H1.06667V12H6.425ZM11.2 15C11.7167 15 12.2 14.9089 12.65 14.7266C13.1 14.5443 13.4944 14.2943 13.8333 13.9766C14.1722 13.6589 14.4389 13.2891 14.6333 12.8672C14.8278 12.4453 14.9278 11.9896 14.9333 11.5C14.9333 11.0156 14.8361 10.5625 14.6417 10.1406C14.4472 9.71875 14.1806 9.34896 13.8417 9.03125C13.5028 8.71354 13.1083 8.46354 12.6583 8.28125C12.2083 8.09896 11.7222 8.00521 11.2 8C10.6833 8 10.2 8.09115 9.75 8.27344C9.3 8.45573 8.90556 8.70573 8.56667 9.02344C8.22778 9.34115 7.96111 9.71094 7.76667 10.1328C7.57222 10.5547 7.47222 11.0104 7.46667 11.5C7.46667 11.9844 7.56389 12.4375 7.75833 12.8594C7.95278 13.2812 8.21945 13.651 8.55833 13.9688C8.89722 14.2865 9.29167 14.5365 9.74167 14.7188C10.1917 14.901 10.6778 14.9948 11.2 15ZM11.7333 11H13.3333V12H10.6667V9H11.7333V11ZM2.13333 8H3.2V9H2.13333V8ZM4.26667 8H5.33333V9H4.26667V8ZM4.26667 6H5.33333V7H4.26667V6ZM2.13333 10H3.2V11H2.13333V10ZM4.26667 10H5.33333V11H4.26667V10ZM7.46667 7H6.4V6H7.46667V7ZM9.6 7H8.53333V6H9.6V7ZM11.7333 7H10.6667V6H11.7333V7Z" fill="#F8F8F8"/>
</svg>
