<svg width="32" height="32" viewBox="0 0 32 32" fill="none" xmlns="http://www.w3.org/2000/svg">
<path d="M26 18.096L16 28L12.1386 24.176M3.98263 13.3707C3.97149 11.9645 4.40529 10.5908 5.22199 9.44603C6.03869 8.30126 7.19647 7.44406 8.52976 6.99702C9.86304 6.54998 11.3035 6.53599 12.6453 6.95705C13.987 7.37811 15.1612 8.21266 16 9.34135C16.5513 8.60805 17.2481 7.99644 18.0468 7.54482C18.8454 7.0932 19.7286 6.81128 20.6412 6.71671C21.5538 6.62214 22.4761 6.71695 23.3503 6.9952C24.2246 7.27346 25.032 7.72918 25.722 8.33383C26.4121 8.93849 26.9699 9.67906 27.3605 10.5092C27.7512 11.3393 27.9663 12.2412 27.9924 13.1583C28.0185 14.0754 27.855 14.988 27.5121 15.839C27.1693 16.69 26.6545 17.4611 26 18.104" stroke="#FF899E" stroke-width="2" stroke-linecap="round" stroke-linejoin="round"/>
<path d="M4 17.3333H6.66667L9.33333 21.3333L12 13.3333L13.3333 17.3333H17.3333" stroke="#FF899E" stroke-width="2" stroke-linecap="round" stroke-linejoin="round"/>
</svg>
