<svg width="32" height="32" viewBox="0 0 32 32" fill="none" xmlns="http://www.w3.org/2000/svg">
<g filter="url(#filter0_d_39_7)">
<path d="M27.0978 16.7662L21.1952 14.1249C20.9664 14.0258 20.7165 13.9854 20.4682 14.0072C20.2198 14.0291 19.9808 14.1125 19.7727 14.2499C19.7561 14.2604 19.7402 14.2721 19.7252 14.2849L16.6252 16.9274C16.5562 16.9695 16.4779 16.9939 16.3972 16.9985C16.3165 17.0031 16.236 16.9877 16.1627 16.9537C14.1327 15.9736 12.0314 13.8886 11.0514 11.8824C11.0167 11.8096 11.0006 11.7294 11.0045 11.6489C11.0085 11.5684 11.0323 11.4901 11.0739 11.4211L13.7239 8.26981C13.7364 8.25481 13.7476 8.23856 13.7589 8.22231C13.8959 8.01456 13.979 7.77599 14.0009 7.5281C14.0227 7.28021 13.9825 7.03078 13.8839 6.80229L11.2376 0.909726C11.1099 0.61128 10.8887 0.362336 10.6074 0.200275C10.3261 0.0382148 9.99986 -0.0282135 9.67759 0.0109659C8.10453 0.218368 6.66076 0.991306 5.61595 2.18541C4.57113 3.37952 3.99673 4.91312 4.00001 6.49979C4.00001 16.1499 11.8501 24 21.5003 24C23.0869 24.0033 24.6205 23.4289 25.8146 22.3841C27.0087 21.3392 27.7817 19.8955 27.9891 18.3224C28.028 18.0016 27.9622 17.6768 27.8017 17.3964C27.6411 17.116 27.3942 16.895 27.0978 16.7662ZM27.0003 18.1974C26.8238 19.5296 26.1681 20.7519 25.1559 21.6358C24.1436 22.5197 22.8441 23.0046 21.5003 23C12.4026 23 5.00003 15.5974 5.00003 6.49979C4.99537 5.15596 5.48032 3.85643 6.3642 2.84418C7.24809 1.83192 8.47039 1.17624 9.80259 0.999727C9.82258 0.998526 9.84261 0.998526 9.86259 0.999727C9.96124 1.00057 10.0574 1.03057 10.1391 1.08595C10.2207 1.14134 10.2841 1.21963 10.3214 1.31098L12.9601 7.20355C12.9909 7.27557 13.0044 7.35381 12.9994 7.43197C12.9944 7.51014 12.9711 7.58604 12.9314 7.65355L10.2826 10.8036C10.2701 10.8198 10.2576 10.8348 10.2463 10.8523C10.1052 11.0681 10.0221 11.3167 10.005 11.5739C9.98797 11.8312 10.0375 12.0885 10.1488 12.3211C11.2351 14.5449 13.4751 16.7687 15.7239 17.8549C15.9581 17.9655 16.2169 18.0137 16.4751 17.9946C16.7334 17.9756 16.9823 17.89 17.1977 17.7462L17.2439 17.7112L20.3477 15.0711C20.4141 15.0306 20.4892 15.0064 20.5668 15.0005C20.6444 14.9946 20.7223 15.0073 20.794 15.0374L26.6953 17.6824C26.7949 17.7239 26.8784 17.7964 26.9334 17.8892C26.9884 17.9821 27.0118 18.0902 27.0003 18.1974Z" fill="black" fill-opacity="0.5" shape-rendering="crispEdges"/>
</g>
<defs>
<filter id="filter0_d_39_7" x="0" y="0" width="32" height="32" filterUnits="userSpaceOnUse" color-interpolation-filters="sRGB">
<feFlood flood-opacity="0" result="BackgroundImageFix"/>
<feColorMatrix in="SourceAlpha" type="matrix" values="0 0 0 0 0 0 0 0 0 0 0 0 0 0 0 0 0 0 127 0" result="hardAlpha"/>
<feOffset dy="4"/>
<feGaussianBlur stdDeviation="2"/>
<feComposite in2="hardAlpha" operator="out"/>
<feColorMatrix type="matrix" values="0 0 0 0 0 0 0 0 0 0 0 0 0 0 0 0 0 0 0.25 0"/>
<feBlend mode="normal" in2="BackgroundImageFix" result="effect1_dropShadow_39_7"/>
<feBlend mode="normal" in="SourceGraphic" in2="effect1_dropShadow_39_7" result="shape"/>
</filter>
</defs>
</svg>
