<svg width="24" height="22" viewBox="0 0 24 22" fill="none" xmlns="http://www.w3.org/2000/svg">
<g clip-path="url(#clip0_1_563)">
<path d="M14.8126 14.1014C14.7605 14.0944 14.7075 14.1001 14.6581 14.1178C14.6088 14.1355 14.5646 14.1648 14.5293 14.2032C14.4934 14.2408 14.4671 14.2864 14.4525 14.336C14.4379 14.3856 14.4355 14.4379 14.4453 14.4886C14.6293 15.4402 15.2484 16.7461 17.1493 17.5592C17.3746 17.655 17.7225 17.7298 18.1637 17.8237C19.8153 18.1754 22.5772 18.7647 23.2557 21.2572C23.2671 21.2989 23.2867 21.3379 23.3134 21.3721C23.3401 21.4063 23.3734 21.435 23.4113 21.4566C23.4493 21.4781 23.4912 21.4921 23.5347 21.4977C23.5781 21.5033 23.6223 21.5004 23.6646 21.4892C23.7069 21.478 23.7466 21.4587 23.7813 21.4324C23.816 21.4061 23.8452 21.3733 23.8671 21.3359C23.8889 21.2985 23.9031 21.2573 23.9088 21.2145C23.9145 21.1717 23.9116 21.1282 23.9002 21.0866C23.1157 18.2076 19.9865 17.5402 18.305 17.1819C17.9157 17.0985 17.5792 17.027 17.4145 16.9561C16.2722 16.4679 15.5344 15.7434 15.2145 14.7997C18.3883 15.032 19.8252 13.7871 19.8886 13.7307C19.9276 13.6958 19.9577 13.6524 19.9764 13.604C19.9951 13.5555 20.0019 13.5033 19.9961 13.4518C19.9904 13.4002 19.9724 13.3508 19.9435 13.3074C19.9146 13.264 19.8757 13.2281 19.8299 13.2024C17.9984 12.1721 17.9984 8.61191 17.9984 7.27119C17.9984 3.52203 15.4337 0.549875 12.1459 0.503281C12.1146 0.502255 12.0833 0.501598 12.0519 0.501312C8.71615 0.519687 6.00153 3.49512 6.00153 7.13469C6.00153 8.47541 6.00153 12.0362 4.17001 13.0659C4.12279 13.0929 4.08299 13.1308 4.05406 13.1764C4.02514 13.222 4.00795 13.2739 4.00401 13.3275C4.00007 13.3811 4.00949 13.4349 4.03145 13.4841C4.05341 13.5333 4.08725 13.5765 4.13002 13.6099C4.22199 13.6801 6.2548 15.2118 8.75614 14.7465C8.42156 15.6508 7.69375 16.3465 6.58471 16.8209C6.42408 16.8898 6.10417 16.9653 5.7336 17.0519C4.04071 17.4483 0.888865 18.1866 0.0997374 21.0859C0.0884029 21.1276 0.0855146 21.171 0.0912375 21.2138C0.0969603 21.2566 0.111182 21.2978 0.133091 21.3352C0.177338 21.4106 0.25021 21.4656 0.335676 21.4882C0.421142 21.5107 0.5122 21.4989 0.58882 21.4553C0.66544 21.4118 0.721345 21.34 0.744236 21.2559C1.43006 18.7332 4.22133 18.0803 5.88822 17.6892C6.30612 17.5914 6.63603 17.5139 6.85064 17.4227C8.75148 16.6096 9.36998 15.3037 9.5546 14.3521C9.56556 14.2964 9.56154 14.2388 9.54296 14.185C9.52437 14.1313 9.49186 14.0832 9.44863 14.0457C9.40574 14.0077 9.35355 13.9815 9.2972 13.9695C9.24086 13.9576 9.18233 13.9603 9.12738 13.9774C7.32318 14.5365 5.65628 13.7674 4.92781 13.3408C6.66802 11.9063 6.66802 8.60469 6.66802 7.13469C6.66802 3.85541 9.08472 1.17397 12.0799 1.15625L12.1506 1.16019C15.1045 1.20153 17.3319 3.8285 17.3319 7.27119C17.3319 8.74184 17.3319 12.0507 19.0794 13.4852C18.4776 13.8238 17.1053 14.3718 14.8126 14.1014Z" fill="black" fill-opacity="0.5"/>
</g>
<defs>
<clipPath id="clip0_1_563">
<rect width="24" height="21" fill="white" transform="translate(0 0.5)"/>
</clipPath>
</defs>
</svg>
